<svg id="Layer_1" data-name="Layer 1" xmlns="http://www.w3.org/2000/svg" viewBox="0 0 283.46 283.46"><defs><style>.cls-1{font-size:170px;fill:#35424a;font-family:Montserrat-SemiBold, Montserrat;font-weight:600;}.cls-2{fill:#385575;}.cls-3{fill:#2e4661;}.cls-4{fill:#283d54;}.cls-5{fill:none;stroke:#f74000;stroke-linecap:round;stroke-linejoin:round;stroke-width:2.66px;}</style></defs><title>LOGO</title><path d="M189,148v28.94q-8.48-2.82-20-5.48l-4.6-1.16V148Z"/><path d="M163.8,206.46a83.12,83.12,0,0,0,16.59-7.31c-.78-.32-1.56-.62-2.39-.89q-6.6-2.2-18-5-11-2.61-19.09-5.23c-1.74.14-3.5.23-5.31.23a52.84,52.84,0,0,1-26.1-6.4,46.63,46.63,0,0,1-18-17.6,49.33,49.33,0,0,1-6.5-25.2,50.08,50.08,0,0,1,6.5-25.6,45.12,45.12,0,0,1,18-17.4,54.47,54.47,0,0,1,26.3-6.21,52.63,52.63,0,0,1,38.6,16l16.4-16a62.87,62.87,0,0,0-24.2-17,85.08,85.08,0,0,0-32-5.79q-21.6,0-38.9,9.29a69,69,0,0,0-27.1,25.71q-9.79,16.39-9.8,37t9.8,37a69.1,69.1,0,0,0,27,25.71q17.2,9.3,38.6,9.29A96.9,96.9,0,0,0,163.8,206.46Z"/><text class="cls-1" transform="translate(119.2 244.21)">S</text><path class="cls-2" d="M99.83,124.17a11.57,11.57,0,0,1,4.48-3.11,10.13,10.13,0,0,0-4,19.11A11.6,11.6,0,0,1,99.83,124.17Z"/><path class="cls-3" d="M135.55,96.68a12.21,12.21,0,0,0-19.38,12.85l-8.73,9.79A12.21,12.21,0,0,0,96.86,140h0L113,154.42h0a7,7,0,0,0,10.57-8.63l-3.6-8.6L135.33,120l9,2.6a7,7,0,0,0,7.37-11.48v0L135.56,96.67Z"/><path class="cls-4" d="M135.57,96.71S153.91,114,146,122.91a7,7,0,0,0,5.68-11.84v0l-16.1-14.38Z"/><path class="cls-4" d="M110.72,126.78l-2.17,2.43a.68.68,0,0,1-1,.06l-2.43-2.17a.68.68,0,0,0-1,.05L102,129.58a.68.68,0,0,0,.06,1l2.43,2.17a.68.68,0,0,1,0,1l-2.12,2.38a.68.68,0,0,0,0,1l2.43,2.17a.68.68,0,0,0,1-.05l2.13-2.38a.68.68,0,0,1,1-.06l2.38,2.13a.68.68,0,0,0,1,0l2.17-2.44a.67.67,0,0,0-.06-1l-2.38-2.13a.68.68,0,0,1,0-1l2.17-2.43a.68.68,0,0,0,0-1l-2.44-2.17A.68.68,0,0,0,110.72,126.78Z"/><circle class="cls-4" cx="127.45" cy="104.51" r="2.26" transform="translate(-32.03 62.9) rotate(-24.73)"/><circle class="cls-4" cx="127.89" cy="110.97" r="2.26"/><circle class="cls-4" cx="133.79" cy="104.36" r="2.26"/><circle class="cls-4" cx="134.26" cy="110.59" r="2.26"/><path class="cls-5" d="M109.77,126.84l-2.17,2.43a.68.68,0,0,1-1,0l-2.43-2.17a.68.68,0,0,0-1,.06l-2.17,2.43a.68.68,0,0,0,0,1l2.43,2.17a.68.68,0,0,1,.06,1l-2.13,2.38a.68.68,0,0,0,.05,1l2.44,2.17a.67.67,0,0,0,1-.06l2.13-2.38a.68.68,0,0,1,1-.05l2.38,2.12a.68.68,0,0,0,1-.05l2.17-2.43a.68.68,0,0,0,0-1l-2.38-2.13a.68.68,0,0,1-.06-1l2.17-2.43a.68.68,0,0,0,0-1l-2.43-2.17A.68.68,0,0,0,109.77,126.84Z"/><circle class="cls-5" cx="126.49" cy="104.57" r="2.26" transform="translate(-37.63 105.07) rotate(-39.76)"/><circle class="cls-5" cx="126.93" cy="111.03" r="2.26"/><circle class="cls-5" cx="132.83" cy="104.42" r="2.26"/><circle class="cls-5" cx="133.3" cy="110.64" r="2.26"/><path class="cls-4" d="M116.6,155.81h0a7,7,0,0,0,6.94-10l-3.49-8.34S124,147.5,116.6,155.81Z"/><polygon class="cls-4" points="131.99 118.96 125.29 126.43 118.59 133.91 119.95 137.2 127.65 128.55 135.42 119.96 131.99 118.96"/></svg>